# xmcd
#
# Track frame offsets:
#	150
#	17518
#	35342
#	54074
#	76738
#	94970
#	114010
#	134174
#	152970
#	172606
#
# Disc length: 2535 seconds
#
# Revision: 0
# Processed by: cddbd v1.5.2PL0 Copyright (c) Steve Scherf et al.
# Submitted via: EasyCDDAExtractor 15.3.0.1
#
DISCID=6809e50a
DTITLE=蔡幸娟 - 缘份
DYEAR=1994
DGENRE=HK music
TTITLE0=缘份
TTITLE1=我不要别人的爱
TTITLE2=你是秋天
TTITLE3=Fall In Love(日语)
TTITLE4=天天在变
TTITLE5=分手何必又相逢
TTITLE6=原谅我再见都没说
TTITLE7=真爱
TTITLE8=还是你最好
TTITLE9=昙花(台语)
EXTD=
EXTT0=
EXTT1=
EXTT2=
EXTT3=
EXTT4=
EXTT5=
EXTT6=
EXTT7=
EXTT8=
EXTT9=
PLAYORDER=
